<?xml version="1.0" encoding="UTF-8"?>
<svg version="1.1" xmlns="http://www.w3.org/2000/svg" width="195" height="210">
<path d="M0 0 C1.60030563 -0.01702469 1.60030563 -0.01702469 3.23294067 -0.03439331 C4.39824814 -0.03146271 5.5635556 -0.0285321 6.76417542 -0.0255127 C7.99543152 -0.03398224 9.22668762 -0.04245178 10.49525452 -0.05117798 C13.86939092 -0.07056994 17.24297431 -0.076325 20.61712909 -0.07443047 C23.43524278 -0.07431075 26.25330475 -0.08287544 29.07140404 -0.09120798 C35.72049446 -0.11044018 42.36945933 -0.11332652 49.01856995 -0.10656738 C55.87497896 -0.09992573 62.73085012 -0.12279572 69.58715004 -0.15988111 C75.47688822 -0.19058092 81.3664534 -0.2019379 87.25626999 -0.1980443 C90.77265981 -0.19597711 94.28863103 -0.20145046 97.80494499 -0.22593689 C101.72646531 -0.25234327 105.64728137 -0.23847382 109.56886292 -0.2208252 C110.73214615 -0.23408844 111.89542938 -0.24735168 113.09396362 -0.26101685 C121.85168141 -0.16924867 121.85168141 -0.16924867 124.92886353 2.80786133 C127.78785195 6.91078165 127.87965208 9.75032496 127.87838745 14.62458801 C127.88206414 15.37822622 127.88574083 16.13186443 127.88952893 16.90834016 C127.90058874 19.44707894 127.90441347 21.98577683 127.90821838 24.52453613 C127.91448126 26.3393568 127.9211279 28.15417618 127.9281311 29.96899414 C127.94555622 34.90913205 127.9560968 39.84926028 127.96433663 44.78942132 C127.96948318 47.87399671 127.97555904 50.95856907 127.98184776 54.04314232 C128.00090334 63.68869668 128.01513417 73.33424335 128.02345973 82.97981292 C128.03323704 94.12410236 128.05956792 105.26819343 128.09996063 116.41241294 C128.13009047 125.0196806 128.1449256 133.62689129 128.14824075 142.23421067 C128.15059465 147.3781111 128.15959936 152.5217997 128.18470192 157.66564369 C128.20793316 162.50426289 128.21223586 167.34253004 128.20194054 172.18119049 C128.20144387 173.95775458 128.20780269 175.73433571 128.22149658 177.51084709 C128.23914117 179.93541573 128.23214693 182.35871076 128.21896362 184.78327942 C128.22993287 185.48717641 128.24090212 186.1910734 128.25220376 186.91630059 C128.18982856 191.66410129 127.0813107 194.056649 123.73121643 197.39440918 C121.21600926 198.65201277 119.48101031 198.53153705 116.66497803 198.54830933 C115.59244278 198.55690979 114.51990753 198.56551025 113.41487122 198.57437134 C112.23302246 198.57863129 111.05117371 198.58289124 109.83351135 198.58728027 C107.97243492 198.59954651 107.97243492 198.59954651 106.07376099 198.61206055 C101.95307236 198.63694735 97.83242046 198.65358809 93.71168518 198.66784668 C92.29340928 198.67320628 90.87513345 198.67858379 89.45685768 198.68397903 C83.55745798 198.7056078 77.65806102 198.72434472 71.75863171 198.73560143 C63.30259001 198.75184229 54.84700771 198.78502267 46.39113921 198.84200227 C40.44627155 198.88069648 34.50152679 198.90023344 28.5565365 198.90552199 C25.00542036 198.90917622 21.45479417 198.92120362 17.90381432 198.95362473 C13.9414406 198.9892833 9.97964388 198.98533574 6.0171051 198.97790527 C4.84132904 198.99431061 3.66555298 199.01071594 2.45414734 199.02761841 C-5.48811541 198.96650103 -5.48811541 198.96650103 -9.47415161 196.04544067 C-12.39000418 191.73814137 -12.40427123 188.11854937 -12.36643982 183.10144043 C-12.36502487 182.39541183 -12.36360992 181.68938324 -12.3621521 180.96195984 C-12.35656121 178.71023292 -12.34401045 176.45860597 -12.33128357 174.20690918 C-12.32626739 172.67891583 -12.32170469 171.15092091 -12.31761169 169.6229248 C-12.30659477 165.88004783 -12.28933644 162.13724545 -12.26878357 158.39440918 C-13.31743591 158.43106689 -14.36608826 158.46772461 -15.44651794 158.50549316 C-19.36731017 158.63296834 -23.28792268 158.71282928 -27.21018982 158.77893066 C-28.9019102 158.81395961 -30.59342131 158.86160062 -32.28440857 158.92248535 C-48.15071465 159.47911578 -48.15071465 159.47911578 -53.36253357 154.99206543 C-57.63535286 150.27548334 -57.43826994 146.27117029 -57.4775238 140.09875488 C-57.48730759 139.13434982 -57.49709137 138.16994476 -57.50717163 137.17631531 C-57.53716512 133.9742878 -57.5585235 130.77230223 -57.57737732 127.57019043 C-57.58394915 126.4775054 -57.59052097 125.38482037 -57.59729195 124.25902367 C-57.62990488 118.47384307 -57.65434952 112.68868104 -57.67381287 106.90344238 C-57.69162132 102.11443266 -57.7264322 97.32601227 -57.77635193 92.53723145 C-57.83653342 86.7576962 -57.8672864 80.9787072 -57.87698555 75.19887352 C-57.88554601 72.99684486 -57.9043785 70.79483102 -57.93372917 68.59298134 C-57.97264571 65.50701988 -57.97367752 62.42318479 -57.96580505 59.33703613 C-57.98580566 58.4302713 -58.00580627 57.52350647 -58.02641296 56.58926392 C-57.96180202 50.93582344 -56.83414938 47.90939808 -52.94740391 43.7714262 C-48.59973107 40.20491425 -44.67734248 40.1235009 -39.22190857 40.19909668 C-38.0651059 40.20334152 -38.0651059 40.20334152 -36.88493347 40.20767212 C-34.42939025 40.21883905 -31.97421597 40.24393689 -29.51878357 40.26940918 C-27.8508201 40.2794435 -26.18285089 40.28856856 -24.51487732 40.29675293 C-20.4327046 40.31876693 -16.35080657 40.35327251 -12.26878357 40.39440918 C-12.28449402 39.45121826 -12.30020447 38.50802734 -12.31639099 37.53625488 C-12.36764364 34.0231777 -12.40519348 30.5105002 -12.43357849 26.99719238 C-12.4486271 25.4792248 -12.46907095 23.96130042 -12.49510193 22.44348145 C-12.5316601 20.25644241 -12.5485488 18.06998021 -12.56175232 15.88269043 C-12.57746277 14.56824951 -12.59317322 13.25380859 -12.60935974 11.89953613 C-12.1655606 7.33206351 -10.8703872 4.84758234 -7.48985195 1.7803421 C-4.78158571 0.09040073 -3.17683047 0.01278713 0 0 Z M3.73121643 12.39440918 C2.41121643 13.71440918 1.09121643 15.03440918 -0.26878357 16.39440918 C0.35655018 18.91804906 0.35655018 18.91804906 1.73121643 21.39440918 C4.12473138 22.55651137 4.12473138 22.55651137 6.73121643 22.39440918 C8.73121643 21.39440918 8.73121643 21.39440918 9.73121643 19.39440918 C9.89331862 16.78792413 9.89331862 16.78792413 8.73121643 14.39440918 C6.25485631 13.01974293 6.25485631 13.01974293 3.73121643 12.39440918 Z M104.73121643 15.39440918 C104.14771138 17.93731543 104.14771138 17.93731543 104.73121643 20.39440918 C107.50109719 22.70984125 107.50109719 22.70984125 110.35621643 22.08190918 C112.66623608 21.62025778 112.66623608 21.62025778 113.73121643 20.39440918 C114.03935221 17.46711925 114.16696478 15.96880473 112.35621643 13.58190918 C109.1672503 11.25151085 107.29553757 12.91556541 104.73121643 15.39440918 Z M1.54371643 179.39440918 C0.94559143 180.05440918 0.34746643 180.71440918 -0.26878357 181.39440918 C0.35655018 183.91804906 0.35655018 183.91804906 1.73121643 186.39440918 C4.12473138 187.55651137 4.12473138 187.55651137 6.73121643 187.39440918 C8.73121643 186.39440918 8.73121643 186.39440918 9.73121643 184.39440918 C9.48668519 181.05248226 9.12578086 179.78897361 6.73121643 177.39440918 C3.60623477 177.05702458 3.60623477 177.05702458 1.54371643 179.39440918 Z M105.98121643 178.51940918 C104.39847343 180.46476893 104.39847343 180.46476893 105.04371643 183.58190918 C105.27059143 184.51003418 105.49746643 185.43815918 105.73121643 186.39440918 C108.07655594 187.16397054 108.07655594 187.16397054 110.73121643 187.39440918 C112.73121643 186.39440918 112.73121643 186.39440918 113.73121643 184.39440918 C113.48668519 181.05248226 113.12578086 179.78897361 110.73121643 177.39440918 C107.8050699 177.12403038 107.8050699 177.12403038 105.98121643 178.51940918 Z " fill="#30495C" transform="translate(62.26878356933594,5.6055908203125)"/>
<path d="M0 0 C1.10699753 0.00068733 1.10699753 0.00068733 2.23635864 0.00138855 C3.80146895 0.00440682 5.36657636 0.01228044 6.93164062 0.0246582 C9.27745762 0.04264024 11.62287201 0.04516943 13.96875 0.04492188 C23.17161956 0.06721459 32.27294598 0.42809443 41.4453125 1.23046875 C41.45989502 2.11307373 41.47447754 2.99567871 41.48950195 3.9050293 C41.55073317 7.19485518 41.6249158 10.48386805 41.70776367 13.77319336 C41.74091807 15.19398077 41.76897942 16.61489688 41.79174805 18.03588867 C41.82547097 20.08437695 41.87778995 22.13169595 41.93359375 24.1796875 C41.95977783 25.41033936 41.98596191 26.64099121 42.01293945 27.90893555 C42.47977473 31.49521107 43.31678851 33.34169035 45.4453125 36.23046875 C45.82404007 36.76125534 46.20276764 37.29204193 46.5929718 37.83891296 C49.40814934 39.95379204 52.34885513 39.71054558 55.73828125 39.7421875 C56.79732414 39.7691143 56.79732414 39.7691143 57.87776184 39.79658508 C60.12938491 39.85070053 62.38079593 39.88458597 64.6328125 39.91796875 C66.16083681 39.95114094 67.68883313 39.98563052 69.21679688 40.02148438 C72.95948239 40.106427 76.70210491 40.17323123 80.4453125 40.23046875 C80.53805825 49.14052761 80.60910037 58.0504199 80.65256119 66.96085644 C80.67342198 71.09850827 80.70171147 75.23582947 80.74707031 79.37329102 C80.79058278 83.36740168 80.81446096 87.36119464 80.82482147 91.35552406 C80.83220323 92.87816684 80.84661836 94.40079254 80.86823273 95.92329979 C80.89734028 98.05886563 80.9012657 100.19312462 80.89941406 102.32885742 C80.90829651 103.54353195 80.91717896 104.75820648 80.92633057 106.00968933 C80.35332959 109.84636386 79.1830484 111.52925486 76.4453125 114.23046875 C75.7853125 114.23046875 75.1253125 114.23046875 74.4453125 114.23046875 C74.4453125 114.89046875 74.4453125 115.55046875 74.4453125 116.23046875 C69.99284094 117.31344285 65.59291187 117.44881787 61.03515625 117.546875 C60.20688828 117.56801865 59.3786203 117.58916229 58.5252533 117.61094666 C51.0395547 117.79553576 43.55261465 117.93591835 36.0657959 118.06643677 C30.53552481 118.16384482 25.0080663 118.29594507 19.47956848 118.46604919 C16.20090067 118.56036404 12.9221236 118.62477684 9.64260864 118.68136597 C8.10768922 118.7138204 6.57297394 118.75846858 5.03878784 118.81594849 C-8.23639474 119.29927666 -8.23639474 119.29927666 -13.484375 114.82421875 C-17.93004174 110.11890654 -17.72349743 106.21359544 -17.76342773 99.93481445 C-17.77321152 98.97040939 -17.7829953 98.00600433 -17.79307556 97.01237488 C-17.82306905 93.81034737 -17.84442743 90.6083618 -17.86328125 87.40625 C-17.86985308 86.31356497 -17.8764249 85.22087994 -17.88319588 84.09508324 C-17.91580881 78.30990264 -17.94025345 72.52474061 -17.9597168 66.73950195 C-17.97752525 61.95049223 -18.01233613 57.16207184 -18.06225586 52.37329102 C-18.12243735 46.59375577 -18.15319033 40.81476677 -18.16288948 35.03493309 C-18.17144994 32.83290443 -18.19028243 30.63089059 -18.2196331 28.42904091 C-18.25854964 25.34307945 -18.25958145 22.25924436 -18.25170898 19.1730957 C-18.27170959 18.26633087 -18.29171021 17.35956604 -18.31231689 16.42532349 C-18.24770595 10.77188301 -17.12005331 7.74545765 -13.23330784 3.60748577 C-9.02839453 0.15808327 -5.28566647 -0.05417867 0 0 Z " fill="#478CBF" transform="translate(22.5546875,45.76953125)"/>
<path d="M0 0 C0.66 0.99 1.32 1.98 2 3 C4.05925139 3.72382467 4.05925139 3.72382467 6 4 C6.66 2.35 7.32 0.7 8 -1 C14.625 -0.25 14.625 -0.25 18 2 C19.1875 5.625 19.1875 5.625 20 9 C21.010625 8.71125 22.02125 8.4225 23.0625 8.125 C27.38687235 7.98771834 27.63132243 8.12702103 30.5625 10.875 C31.13226563 11.431875 31.70203125 11.98875 32.2890625 12.5625 C34.69078009 14.58038144 36.92415174 14.84995862 40 15 C40 14.34 40 13.68 40 13 C44.49472607 12.91010548 48.57857987 13.26309664 53 14 C55.31 14 57.62 14 60 14 C60 25.88 60 37.76 60 50 C50 50 50 50 47 48 C47 48.66 47 49.32 47 50 C43.04 50 39.08 50 35 50 C35 49.34 35 48.68 35 48 C34.01 48 33.02 48 32 48 C32 48.66 32 49.32 32 50 C31.34 50 30.68 50 30 50 C30 50.66 30 51.32 30 52 C28.68 52 27.36 52 26 52 C25.34 51.34 24.68 50.68 24 50 C23.39994141 50.21148682 22.79988281 50.42297363 22.18164062 50.64086914 C15.83836794 52.73015086 10.16201615 53.51393433 3.5 53.4375 C2.58162354 53.43065186 1.66324707 53.42380371 0.71704102 53.41674805 C-7.30615567 53.22617839 -13.77877379 52.2997927 -19.5625 46.375 C-21.58025717 43.04131424 -22.137034 41.19151587 -22.24609375 37.31640625 C-22.27896484 36.38892578 -22.31183594 35.46144531 -22.34570312 34.50585938 C-22.40677565 32.5476403 -22.46408308 30.5893001 -22.51757812 28.63085938 C-22.55173828 27.70208984 -22.58589844 26.77332031 -22.62109375 25.81640625 C-22.65867798 24.53938843 -22.65867798 24.53938843 -22.69702148 23.23657227 C-22.8720081 20.71750347 -22.8720081 20.71750347 -25 18 C-24.83533386 14.87134341 -23.95189013 12.90778941 -22.5 10.125 C-20 8 -20 8 -17.734375 7.91015625 C-15.45347678 8.16478482 -13.24270415 8.51599761 -11 9 C-11 6.69 -11 4.38 -11 2 C-6.97840655 -0.33813573 -4.49734964 -1.74896931 0 0 Z " fill="#478CBE" transform="translate(43,95)"/>
<path d="M0 0 C0.33 1.32 0.66 2.64 1 4 C3.31 4 5.62 4 8 4 C8.66 2.68 9.32 1.36 10 0 C16.875 0.875 16.875 0.875 18 2 C18.04092937 4.33297433 18.04241723 6.66705225 18 9 C21.66305234 9.74926071 24.42355152 10.2380014 28 9 C30.0625 11.25 30.0625 11.25 32 14 C31.81190541 16.25713514 31.60454441 17.39545559 30 19 C29.78936893 21.50416935 29.62427923 23.99140081 29.5 26.5 C29.13513514 33.86486486 29.13513514 33.86486486 28 35 C26.48071962 35.07179964 24.95832518 35.08392007 23.4375 35.0625 C22.61121094 35.05347656 21.78492188 35.04445312 20.93359375 35.03515625 C20.29550781 35.02355469 19.65742187 35.01195312 19 35 C19 36.65 19 38.3 19 40 C16.36 40 13.72 40 11 40 C10.67 39.01 10.34 38.02 10 37 C6.37 36.67 2.74 36.34 -1 36 C-1 37.32 -1 38.64 -1 40 C-3.64 40 -6.28 40 -9 40 C-9.33 38.68 -9.66 37.36 -10 36 C-12.97 35.67 -15.94 35.34 -19 35 C-19.07347656 33.30230469 -19.07347656 33.30230469 -19.1484375 31.5703125 C-19.22346514 30.08851661 -19.29901297 28.606747 -19.375 27.125 C-19.4059375 26.37863281 -19.436875 25.63226563 -19.46875 24.86328125 C-19.55643831 20.46526812 -19.55643831 20.46526812 -22 17 C-21.64700993 13.55834679 -20.95418308 11.93127462 -19 9 C-17.906875 9.20625 -16.81375 9.4125 -15.6875 9.625 C-11.9161599 10.40346525 -11.9161599 10.40346525 -9 8 C-8.26393501 4.43230448 -8.26393501 4.43230448 -8 1 C-5.07175348 0.02391783 -3.04386724 -0.08226668 0 0 Z " fill="#346488" transform="translate(42,96)"/>
<path d="M0 0 C0.66 0.99 1.32 1.98 2 3 C4.05925139 3.72382467 4.05925139 3.72382467 6 4 C6.66 2.35 7.32 0.7 8 -1 C14.625 -0.25 14.625 -0.25 18 2 C19.1875 5.625 19.1875 5.625 20 9 C21.03125 8.690625 22.0625 8.38125 23.125 8.0625 C27 8 27 8 28.80078125 9.4921875 C30.30058477 11.2747702 31.6893221 13.0747918 33 15 C32.67773438 15.61101562 32.35546875 16.22203125 32.0234375 16.8515625 C30.30434747 22.14006083 30.64032908 27.6387585 30.609375 33.1640625 C30.45230061 39.27251085 29.71263977 43.06703168 26 48 C23.74609375 49.5234375 23.74609375 49.5234375 21.4375 50.375 C20.67308594 50.67148438 19.90867188 50.96796875 19.12109375 51.2734375 C9.67931259 54.50763878 -3.63088206 54.83515248 -13.0625 51.3125 C-17.38240485 49.14483346 -19.84657525 46.3068495 -22 42 C-22.1283502 40.4419261 -22.20211274 38.87913903 -22.24609375 37.31640625 C-22.27896484 36.38892578 -22.31183594 35.46144531 -22.34570312 34.50585938 C-22.40677565 32.5476403 -22.46408308 30.5893001 -22.51757812 28.63085938 C-22.55173828 27.70208984 -22.58589844 26.77332031 -22.62109375 25.81640625 C-22.65867798 24.53938843 -22.65867798 24.53938843 -22.69702148 23.23657227 C-22.8720081 20.71750347 -22.8720081 20.71750347 -25 18 C-24.83533386 14.87134341 -23.95189013 12.90778941 -22.5 10.125 C-20 8 -20 8 -17.734375 7.91015625 C-15.45347678 8.16478482 -13.24270415 8.51599761 -11 9 C-11 6.69 -11 4.38 -11 2 C-6.97840655 -0.33813573 -4.49734964 -1.74896931 0 0 Z M-9 2 C-9.33 4.31 -9.66 6.62 -10 9 C-13.78187881 10.83691257 -15.94568308 11.15837626 -20 10 C-21.66846734 11.69495956 -21.66846734 11.69495956 -23 14 C-22.76554071 17.32350454 -22.76554071 17.32350454 -21 20 C-20.76321284 22.69235776 -20.57801975 25.36498156 -20.4375 28.0625 C-20.39431641 28.82111328 -20.35113281 29.57972656 -20.30664062 30.36132812 C-20.20026367 32.24065438 -20.09960066 34.12030244 -20 36 C-17.03 36.33 -14.06 36.66 -11 37 C-10.67 38.32 -10.34 39.64 -10 41 C-7.36 41 -4.72 41 -2 41 C-2 39.68 -2 38.36 -2 37 C1.63 37.33 5.26 37.66 9 38 C9.33 38.99 9.66 39.98 10 41 C12.64 41 15.28 41 18 41 C18 39.35 18 37.7 18 36 C18.63808594 36.01160156 19.27617188 36.02320313 19.93359375 36.03515625 C20.75988281 36.04417969 21.58617187 36.05320313 22.4375 36.0625 C23.67306641 36.07990234 23.67306641 36.07990234 24.93359375 36.09765625 C26.99163938 36.23267348 26.99163938 36.23267348 28 35 C28.23659529 31.81910775 28.39625615 28.64590563 28.51757812 25.45898438 C28.78671875 20.21328125 28.78671875 20.21328125 31 18 C30.79163217 15.29121826 30.27332888 13.45554813 28.875 11.125 C25.90173306 9.34103984 23.30583005 10.40967321 20 11 C19.01 10.67 18.02 10.34 17 10 C17 7.69 17 5.38 17 3 C14.42786866 1.38050989 13.32330841 0.95591249 10.25 1.375 C9.5075 1.58125 8.765 1.7875 8 2 C7.67 2.99 7.34 3.98 7 5 C4.69 5 2.38 5 0 5 C-0.33 3.68 -0.66 2.36 -1 1 C-4.04386724 0.91773332 -6.07175348 1.02391783 -9 2 Z " fill="#D3E0E9" transform="translate(43,95)"/>
<path d="M0 0 C5.32161947 4.43931441 10.25624013 9.13391605 15.125 14.0625 C15.81464844 14.75666016 16.50429687 15.45082031 17.21484375 16.16601562 C20.07740949 19.04773811 22.93506263 21.9340608 25.78515625 24.828125 C27.5696728 26.5780213 29.34396854 28.15641998 31.3125 29.6875 C32.199375 30.450625 33.08625 31.21375 34 32 C34 32.66 34 33.32 34 34 C34.66 34 35.32 34 36 34 C37.625 35.375 37.625 35.375 39 37 C39 37.66 39 38.32 39 39 C34.55270923 39.14898157 30.10676157 39.25750548 25.65771484 39.32958984 C24.1463896 39.35965471 22.63523729 39.40052013 21.12451172 39.45263672 C8.61669396 39.87313685 8.61669396 39.87313685 4.67285156 37.74316406 C1.35219217 34.53365645 0.05365379 31.46249852 -0.11352539 26.90551758 C-0.10828857 25.66439209 -0.10305176 24.4232666 -0.09765625 23.14453125 C-0.0962413 22.48289474 -0.09482635 21.82125824 -0.09336853 21.13957214 C-0.08777996 19.03050172 -0.07522965 16.92153823 -0.0625 14.8125 C-0.05748352 13.38086091 -0.05292087 11.94922015 -0.04882812 10.51757812 C-0.0378143 7.01168412 -0.02055755 3.5058525 0 0 Z " fill="#326286" transform="translate(64,47)"/>
<path d="M0 0 C2.64 0 5.28 0 8 0 C8 1.65 8 3.3 8 5 C11.96 5 15.92 5 20 5 C20 3.68 20 2.36 20 1 C22.64 1 25.28 1 28 1 C28 2.32 28 3.64 28 5 C31.63 4.67 35.26 4.34 39 4 C39.33 2.68 39.66 1.36 40 0 C42.31 0 44.62 0 47 0 C47.375 2.6875 47.375 2.6875 47 6 C42.36910327 11.09398641 37.31322769 12.61463156 30.52978516 13.22070312 C27.87089733 13.33907655 25.22391427 13.37116234 22.5625 13.375 C21.67240234 13.39949219 20.78230469 13.42398438 19.86523438 13.44921875 C12.73820063 13.48045484 6.26466343 12.06680504 0.9375 7.0625 C-0.19619383 4.56837357 -0.22581346 2.70976157 0 0 Z " fill="#37678C" transform="translate(23,133)"/>
<path d="M0 0 C0 1.32 0 2.64 0 4 C2.64 4 5.28 4 8 4 C8 2.68 8 1.36 8 0 C11.63 0 15.26 0 19 0 C19.33 1.32 19.66 2.64 20 4 C22.64 4 25.28 4 28 4 C28 2.35 28 0.7 28 -1 C31.3 -0.67 34.6 -0.34 38 0 C38 1.65 38 3.3 38 5 C37.505 3.02 37.505 3.02 37 1 C34.69 1 32.38 1 30 1 C29.67 2.65 29.34 4.3 29 6 C25.37 6 21.74 6 18 6 C18 4.68 18 3.36 18 2 C15.36 2 12.72 2 10 2 C10 3.32 10 4.64 10 6 C6.04 6 2.08 6 -2 6 C-2 4.35 -2 2.7 -2 1 C-4.64 1 -7.28 1 -10 1 C-8.9873824 5.83877657 -8.9873824 5.83877657 -6.25 9.8125 C-1.5223219 12.30766344 2.73018622 13.25020427 8.0546875 13.1953125 C9.16328125 13.18886719 10.271875 13.18242187 11.4140625 13.17578125 C13.12722656 13.15064453 13.12722656 13.15064453 14.875 13.125 C16.0403125 13.11597656 17.205625 13.10695312 18.40625 13.09765625 C21.27104577 13.07417432 24.13541535 13.04133141 27 13 C27 13.66 27 14.32 27 15 C18.4670681 17.84431063 5.32101762 17.44369333 -3.0625 14.3125 C-7.77294609 11.94045393 -10.32719264 9.01842207 -12 4 C-11.5625 1.8125 -11.5625 1.8125 -11 0 C-6.98195309 -0.84098656 -3.98196457 -1.05404945 0 0 Z " fill="#D4E2ED" transform="translate(33,132)"/>
<path d="M0 0 C10.89 0 21.78 0 33 0 C33.495 2.475 33.495 2.475 34 5 C31.04189524 6.47905238 28.0452845 6.12190903 24.8046875 6.09765625 C24.09724396 6.0962413 23.38980042 6.09482635 22.66091919 6.09336853 C20.39890331 6.087766 18.13698602 6.07521318 15.875 6.0625 C14.34244935 6.05748532 12.80989714 6.05292236 11.27734375 6.04882812 C7.51819112 6.03779577 3.75911228 6.02052952 0 6 C0 4.02 0 2.04 0 0 Z " fill="#39678B" transform="translate(103,138)"/>
<path d="M0 0 C10.89 0 21.78 0 33 0 C33.495 2.475 33.495 2.475 34 5 C31.04189524 6.47905238 28.0452845 6.12190903 24.8046875 6.09765625 C24.09724396 6.0962413 23.38980042 6.09482635 22.66091919 6.09336853 C20.39890331 6.087766 18.13698602 6.07521318 15.875 6.0625 C14.34244935 6.05748532 12.80989714 6.05292236 11.27734375 6.04882812 C7.51819112 6.03779577 3.75911228 6.02052952 0 6 C0 4.02 0 2.04 0 0 Z " fill="#39678B" transform="translate(103,117)"/>
<path d="M0 0 C10.89 0 21.78 0 33 0 C33.495 2.475 33.495 2.475 34 5 C31.04189524 6.47905238 28.0452845 6.12190903 24.8046875 6.09765625 C24.09724396 6.0962413 23.38980042 6.09482635 22.66091919 6.09336853 C20.39890331 6.087766 18.13698602 6.07521318 15.875 6.0625 C14.34244935 6.05748532 12.80989714 6.05292236 11.27734375 6.04882812 C7.51819112 6.03779577 3.75911228 6.02052952 0 6 C0 4.02 0 2.04 0 0 Z " fill="#39678B" transform="translate(103,96)"/>
<path d="M0 0 C1.7325 0.1546875 1.7325 0.1546875 3.5 0.3125 C5.5 3.3125 5.5 3.3125 5.25 5.875 C4.5 8.3125 4.5 8.3125 2.5 10.3125 C-0.34602594 10.67737512 -1.8864306 10.71449375 -4.3125 9.125 C-5.90199375 6.6989306 -5.86487512 5.15852594 -5.5 2.3125 C-3.5 0.3125 -3.5 0.3125 0 0 Z " fill="#C7D0D8" transform="translate(59.5,116.6875)"/>
<path d="M0 0 C3 0.25 3 0.25 5 2.25 C5.25 5.25 5.25 5.25 5 8.25 C3 10.25 3 10.25 0.5625 10.5625 C-2 10.25 -2 10.25 -3.8125 9.0625 C-5.40199375 6.6364306 -5.36487512 5.09602594 -5 2.25 C-3 0.25 -3 0.25 0 0 Z " fill="#D9E0E5" transform="translate(34,116.75)"/>
<path d="M0 0 C0.33 0 0.66 0 1 0 C1.14567407 3.56206722 1.23419196 7.12336551 1.3125 10.6875 C1.3753418 12.19860352 1.3753418 12.19860352 1.43945312 13.74023438 C1.56359111 21.26299624 1.56359111 21.26299624 -1.38671875 25.12109375 C-5.72868217 28.24289406 -5.72868217 28.24289406 -8 29 C-8.99 28.67 -9.98 28.34 -11 28 C-10.16855469 27.51080078 -10.16855469 27.51080078 -9.3203125 27.01171875 C-8.59585938 26.57472656 -7.87140625 26.13773438 -7.125 25.6875 C-6.40570313 25.25824219 -5.68640625 24.82898438 -4.9453125 24.38671875 C-2.19782915 22.42817138 -1.1340269 20.57631565 -0.375 17.3125 C-0.25125 16.549375 -0.1275 15.78625 0 15 C-1.98 15 -3.96 15 -6 15 C-6 14.67 -6 14.34 -6 14 C-4.35 13.67 -2.7 13.34 -1 13 C-0.67 8.71 -0.34 4.42 0 0 Z " fill="#EDF2F7" transform="translate(71,117)"/>
<path d="M0 0 C1.2065625 0.0309375 1.2065625 0.0309375 2.4375 0.0625 C2.81968767 1.71864657 3.15145102 3.38707024 3.4375 5.0625 C2.4375 6.0625 2.4375 6.0625 -0.125 6.125 C-1.3315625 6.0940625 -1.3315625 6.0940625 -2.5625 6.0625 C-2.94468767 4.40635343 -3.27645102 2.73792976 -3.5625 1.0625 C-2.5625 0.0625 -2.5625 0.0625 0 0 Z " fill="#414042" transform="translate(34.5625,118.9375)"/>
<path d="M0 0 C3.3 0.33 6.6 0.66 10 1 C10 2.65 10 4.3 10 6 C9.67 4.68 9.34 3.36 9 2 C6.69 2 4.38 2 2 2 C1.67 3.65 1.34 5.3 1 7 C-1.97 6.67 -4.94 6.34 -8 6 C-8 5.67 -8 5.34 -8 5 C-5.36 5 -2.72 5 0 5 C0 3.35 0 1.7 0 0 Z " fill="#ADC9DE" transform="translate(61,131)"/>
<path d="M0 0 C1.65 0.33 3.3 0.66 5 1 C4.67 2.65 4.34 4.3 4 6 C2.35 5.67 0.7 5.34 -1 5 C-0.67 3.35 -0.34 1.7 0 0 Z " fill="#353436" transform="translate(57,119)"/>
<path d="M0 0 C1.32 0 2.64 0 4 0 C4 2.31 4 4.62 4 7 C2.68 7 1.36 7 0 7 C0 4.69 0 2.38 0 0 Z " fill="#D6E1EA" transform="translate(45,120)"/>
<path d="M0 0 C0 0.66 0 1.32 0 2 C-4.34492771 3.13896163 -8.38620785 2.93100471 -12.8125 2.5625 C-13.85180664 2.48418945 -13.85180664 2.48418945 -14.91210938 2.40429688 C-16.60854437 2.27560181 -18.30434863 2.13863816 -20 2 C-20 1.67 -20 1.34 -20 1 C-17.4167588 0.83178895 -14.83342301 0.66537483 -12.25 0.5 C-11.52039062 0.45230469 -10.79078125 0.40460938 -10.0390625 0.35546875 C-6.68189836 0.14183103 -3.36563724 0 0 0 Z " fill="#A4C2D9" transform="translate(60,145)"/>
<path d="M0 0 C0.66 0.66 1.32 1.32 2 2 C-3.53846154 7.84615385 -3.53846154 7.84615385 -7 9 C-7.99 8.67 -8.98 8.34 -10 8 C-9.16855469 7.51080078 -9.16855469 7.51080078 -8.3203125 7.01171875 C-7.23363281 6.35623047 -7.23363281 6.35623047 -6.125 5.6875 C-5.40570313 5.25824219 -4.68640625 4.82898438 -3.9453125 4.38671875 C-1.73153667 2.98247625 -1.73153667 2.98247625 0 0 Z " fill="#D3E1EC" transform="translate(70,137)"/>
<path d="M0 0 C2.97 0.495 2.97 0.495 6 1 C5.01 1.33 4.02 1.66 3 2 C3 2.66 3 3.32 3 4 C-0.3 4 -3.6 4 -7 4 C-7 3.67 -7 3.34 -7 3 C-4.69 2.34 -2.38 1.68 0 1 C0 0.67 0 0.34 0 0 Z " fill="#437194" transform="translate(30,127)"/>
<path d="M0 0 C1.65 0.33 3.3 0.66 5 1 C2.84365964 3.15634036 0.62901288 4.47793991 -2 6 C-2 3 -2 3 0 0 Z " fill="#3E6D91" transform="translate(23,105)"/>
</svg>
